<mxfile host="app.diagrams.net" modified="2024-07-03T08:15:52.502Z" agent="Mozilla/5.0 (Windows NT 10.0; Win64; x64) AppleWebKit/537.36 (KHTML, like Gecko) Chrome/123.0.0.0 Safari/537.36 OPR/109.0.0.0" etag="RmJ5hiNtF4JCX-ewvgU1" version="24.3.1" type="github">
  <diagram name="Page-1" id="_w-4o4oHEvFPpEyaA4Hl">
    <mxGraphModel dx="1086" dy="582" grid="1" gridSize="10" guides="1" tooltips="1" connect="1" arrows="1" fold="1" page="1" pageScale="1" pageWidth="850" pageHeight="1100" math="0" shadow="0">
      <root>
        <mxCell id="0" />
        <mxCell id="1" parent="0" />
        <mxCell id="fXjwy3XQdKXkn7aBWRbw-4" value="Menampilkan mainmenu" style="rhombus;whiteSpace=wrap;html=1;" vertex="1" parent="1">
          <mxGeometry x="460" y="710" width="160" height="80" as="geometry" />
        </mxCell>
        <mxCell id="fXjwy3XQdKXkn7aBWRbw-15" style="edgeStyle=orthogonalEdgeStyle;rounded=0;orthogonalLoop=1;jettySize=auto;html=1;entryX=0.5;entryY=0;entryDx=0;entryDy=0;" edge="1" parent="1" source="fXjwy3XQdKXkn7aBWRbw-5" target="fXjwy3XQdKXkn7aBWRbw-6">
          <mxGeometry relative="1" as="geometry" />
        </mxCell>
        <mxCell id="fXjwy3XQdKXkn7aBWRbw-5" value="menampilkan splash screen" style="ellipse;whiteSpace=wrap;html=1;" vertex="1" parent="1">
          <mxGeometry x="180" y="70" width="120" height="80" as="geometry" />
        </mxCell>
        <mxCell id="fXjwy3XQdKXkn7aBWRbw-21" style="edgeStyle=orthogonalEdgeStyle;rounded=0;orthogonalLoop=1;jettySize=auto;html=1;entryX=0.5;entryY=0;entryDx=0;entryDy=0;" edge="1" parent="1" source="fXjwy3XQdKXkn7aBWRbw-6" target="fXjwy3XQdKXkn7aBWRbw-20">
          <mxGeometry relative="1" as="geometry" />
        </mxCell>
        <mxCell id="fXjwy3XQdKXkn7aBWRbw-6" value="Menampilkan title screen" style="ellipse;whiteSpace=wrap;html=1;" vertex="1" parent="1">
          <mxGeometry x="180" y="190" width="120" height="80" as="geometry" />
        </mxCell>
        <mxCell id="fXjwy3XQdKXkn7aBWRbw-17" style="edgeStyle=orthogonalEdgeStyle;rounded=0;orthogonalLoop=1;jettySize=auto;html=1;entryX=0.5;entryY=0;entryDx=0;entryDy=0;" edge="1" parent="1" source="fXjwy3XQdKXkn7aBWRbw-7" target="fXjwy3XQdKXkn7aBWRbw-8">
          <mxGeometry relative="1" as="geometry" />
        </mxCell>
        <mxCell id="fXjwy3XQdKXkn7aBWRbw-7" value="Menampilkan mainmenu" style="ellipse;whiteSpace=wrap;html=1;" vertex="1" parent="1">
          <mxGeometry x="180" y="440" width="120" height="80" as="geometry" />
        </mxCell>
        <mxCell id="fXjwy3XQdKXkn7aBWRbw-19" style="edgeStyle=orthogonalEdgeStyle;rounded=0;orthogonalLoop=1;jettySize=auto;html=1;entryX=0.5;entryY=0;entryDx=0;entryDy=0;" edge="1" parent="1" source="fXjwy3XQdKXkn7aBWRbw-8" target="fXjwy3XQdKXkn7aBWRbw-9">
          <mxGeometry relative="1" as="geometry" />
        </mxCell>
        <mxCell id="fXjwy3XQdKXkn7aBWRbw-8" value="Menampilkan pilihan level" style="ellipse;whiteSpace=wrap;html=1;" vertex="1" parent="1">
          <mxGeometry x="180" y="570" width="120" height="80" as="geometry" />
        </mxCell>
        <mxCell id="fXjwy3XQdKXkn7aBWRbw-23" style="edgeStyle=orthogonalEdgeStyle;rounded=0;orthogonalLoop=1;jettySize=auto;html=1;entryX=0.5;entryY=0;entryDx=0;entryDy=0;" edge="1" parent="1" source="fXjwy3XQdKXkn7aBWRbw-9" target="fXjwy3XQdKXkn7aBWRbw-10">
          <mxGeometry relative="1" as="geometry" />
        </mxCell>
        <mxCell id="fXjwy3XQdKXkn7aBWRbw-9" value="Memulai permainan" style="ellipse;whiteSpace=wrap;html=1;" vertex="1" parent="1">
          <mxGeometry x="180" y="690" width="120" height="80" as="geometry" />
        </mxCell>
        <mxCell id="fXjwy3XQdKXkn7aBWRbw-25" style="edgeStyle=orthogonalEdgeStyle;rounded=0;orthogonalLoop=1;jettySize=auto;html=1;entryX=0.563;entryY=0;entryDx=0;entryDy=0;entryPerimeter=0;" edge="1" parent="1" source="fXjwy3XQdKXkn7aBWRbw-10" target="fXjwy3XQdKXkn7aBWRbw-24">
          <mxGeometry relative="1" as="geometry">
            <mxPoint x="400" y="850" as="targetPoint" />
          </mxGeometry>
        </mxCell>
        <mxCell id="fXjwy3XQdKXkn7aBWRbw-10" value="menjeda permain dan menampilkan petunjuk permainan" style="ellipse;whiteSpace=wrap;html=1;" vertex="1" parent="1">
          <mxGeometry x="180" y="810" width="120" height="80" as="geometry" />
        </mxCell>
        <mxCell id="fXjwy3XQdKXkn7aBWRbw-11" value="Melanjutkan permainan dan memunculkan npc secara acak" style="ellipse;whiteSpace=wrap;html=1;" vertex="1" parent="1">
          <mxGeometry x="150" y="943" width="120" height="80" as="geometry" />
        </mxCell>
        <mxCell id="fXjwy3XQdKXkn7aBWRbw-12" value="Musuh hancur&amp;nbsp;" style="rhombus;whiteSpace=wrap;html=1;" vertex="1" parent="1">
          <mxGeometry x="230" y="1054" width="160" height="80" as="geometry" />
        </mxCell>
        <mxCell id="fXjwy3XQdKXkn7aBWRbw-13" value="Total jumlah npc berkurang" style="ellipse;whiteSpace=wrap;html=1;" vertex="1" parent="1">
          <mxGeometry x="290" y="1570" width="120" height="80" as="geometry" />
        </mxCell>
        <mxCell id="fXjwy3XQdKXkn7aBWRbw-14" value="Skor bertambah" style="ellipse;whiteSpace=wrap;html=1;" vertex="1" parent="1">
          <mxGeometry x="90" y="1170" width="120" height="80" as="geometry" />
        </mxCell>
        <mxCell id="fXjwy3XQdKXkn7aBWRbw-22" style="edgeStyle=orthogonalEdgeStyle;rounded=0;orthogonalLoop=1;jettySize=auto;html=1;" edge="1" parent="1" source="fXjwy3XQdKXkn7aBWRbw-20" target="fXjwy3XQdKXkn7aBWRbw-7">
          <mxGeometry relative="1" as="geometry" />
        </mxCell>
        <mxCell id="fXjwy3XQdKXkn7aBWRbw-20" value="background musik dimulai" style="ellipse;whiteSpace=wrap;html=1;" vertex="1" parent="1">
          <mxGeometry x="180" y="300" width="120" height="80" as="geometry" />
        </mxCell>
        <mxCell id="fXjwy3XQdKXkn7aBWRbw-24" value="next" style="rhombus;whiteSpace=wrap;html=1;" vertex="1" parent="1">
          <mxGeometry x="310" y="890" width="160" height="80" as="geometry" />
        </mxCell>
        <mxCell id="fXjwy3XQdKXkn7aBWRbw-27" value="" style="endArrow=classic;html=1;rounded=0;exitX=0.5;exitY=1;exitDx=0;exitDy=0;entryX=1.012;entryY=0.587;entryDx=0;entryDy=0;entryPerimeter=0;" edge="1" parent="1" source="fXjwy3XQdKXkn7aBWRbw-24" target="fXjwy3XQdKXkn7aBWRbw-11">
          <mxGeometry width="50" height="50" relative="1" as="geometry">
            <mxPoint x="420" y="940" as="sourcePoint" />
            <mxPoint x="470" y="890" as="targetPoint" />
            <Array as="points">
              <mxPoint x="390" y="1000" />
            </Array>
          </mxGeometry>
        </mxCell>
        <mxCell id="fXjwy3XQdKXkn7aBWRbw-28" value="" style="endArrow=classic;html=1;rounded=0;exitX=0;exitY=0.5;exitDx=0;exitDy=0;entryX=0.376;entryY=1.033;entryDx=0;entryDy=0;entryPerimeter=0;" edge="1" parent="1" source="fXjwy3XQdKXkn7aBWRbw-24" target="fXjwy3XQdKXkn7aBWRbw-10">
          <mxGeometry width="50" height="50" relative="1" as="geometry">
            <mxPoint x="400" y="980" as="sourcePoint" />
            <mxPoint x="291" y="1007" as="targetPoint" />
            <Array as="points">
              <mxPoint x="230" y="930" />
            </Array>
          </mxGeometry>
        </mxCell>
        <mxCell id="fXjwy3XQdKXkn7aBWRbw-29" value="NO" style="text;align=center;fontStyle=1;verticalAlign=middle;spacingLeft=3;spacingRight=3;strokeColor=none;rotatable=0;points=[[0,0.5],[1,0.5]];portConstraint=eastwest;html=1;" vertex="1" parent="1">
          <mxGeometry x="250" y="900" width="80" height="26" as="geometry" />
        </mxCell>
        <mxCell id="fXjwy3XQdKXkn7aBWRbw-30" value="Yes" style="text;align=center;fontStyle=1;verticalAlign=middle;spacingLeft=3;spacingRight=3;strokeColor=none;rotatable=0;points=[[0,0.5],[1,0.5]];portConstraint=eastwest;html=1;" vertex="1" parent="1">
          <mxGeometry x="300" y="970" width="80" height="26" as="geometry" />
        </mxCell>
        <mxCell id="fXjwy3XQdKXkn7aBWRbw-31" value="" style="endArrow=classic;html=1;rounded=0;exitX=0.589;exitY=0.996;exitDx=0;exitDy=0;exitPerimeter=0;entryX=0.5;entryY=0;entryDx=0;entryDy=0;" edge="1" parent="1" source="fXjwy3XQdKXkn7aBWRbw-11" target="fXjwy3XQdKXkn7aBWRbw-12">
          <mxGeometry width="50" height="50" relative="1" as="geometry">
            <mxPoint x="400" y="980" as="sourcePoint" />
            <mxPoint x="340" y="1050" as="targetPoint" />
            <Array as="points">
              <mxPoint x="220" y="1040" />
              <mxPoint x="310" y="1040" />
            </Array>
          </mxGeometry>
        </mxCell>
        <mxCell id="fXjwy3XQdKXkn7aBWRbw-32" value="" style="endArrow=classic;html=1;rounded=0;exitX=0.5;exitY=1;exitDx=0;exitDy=0;entryX=0.5;entryY=0;entryDx=0;entryDy=0;" edge="1" parent="1" source="fXjwy3XQdKXkn7aBWRbw-12" target="fXjwy3XQdKXkn7aBWRbw-51">
          <mxGeometry width="50" height="50" relative="1" as="geometry">
            <mxPoint x="241" y="1040" as="sourcePoint" />
            <mxPoint x="350" y="1090" as="targetPoint" />
            <Array as="points" />
          </mxGeometry>
        </mxCell>
        <mxCell id="fXjwy3XQdKXkn7aBWRbw-34" value="Yes" style="text;align=center;fontStyle=1;verticalAlign=middle;spacingLeft=3;spacingRight=3;strokeColor=none;rotatable=0;points=[[0,0.5],[1,0.5]];portConstraint=eastwest;html=1;" vertex="1" parent="1">
          <mxGeometry x="210" y="1190" width="80" height="26" as="geometry" />
        </mxCell>
        <mxCell id="fXjwy3XQdKXkn7aBWRbw-37" value="Skor berkurang" style="ellipse;whiteSpace=wrap;html=1;" vertex="1" parent="1">
          <mxGeometry x="450" y="1200" width="120" height="80" as="geometry" />
        </mxCell>
        <mxCell id="fXjwy3XQdKXkn7aBWRbw-38" value="" style="endArrow=classic;html=1;rounded=0;exitX=0.5;exitY=1;exitDx=0;exitDy=0;entryX=0.5;entryY=0;entryDx=0;entryDy=0;" edge="1" parent="1" source="fXjwy3XQdKXkn7aBWRbw-40" target="fXjwy3XQdKXkn7aBWRbw-41">
          <mxGeometry width="50" height="50" relative="1" as="geometry">
            <mxPoint x="350" y="1170" as="sourcePoint" />
            <mxPoint x="290" y="1230" as="targetPoint" />
            <Array as="points">
              <mxPoint x="470" y="1410" />
            </Array>
          </mxGeometry>
        </mxCell>
        <mxCell id="fXjwy3XQdKXkn7aBWRbw-41" value="VFX salah ditampilkan" style="ellipse;whiteSpace=wrap;html=1;" vertex="1" parent="1">
          <mxGeometry x="400" y="1430" width="120" height="80" as="geometry" />
        </mxCell>
        <mxCell id="fXjwy3XQdKXkn7aBWRbw-42" value="" style="endArrow=classic;html=1;rounded=0;exitX=0.5;exitY=1;exitDx=0;exitDy=0;" edge="1" parent="1" source="fXjwy3XQdKXkn7aBWRbw-37" target="fXjwy3XQdKXkn7aBWRbw-40">
          <mxGeometry width="50" height="50" relative="1" as="geometry">
            <mxPoint x="510" y="1280" as="sourcePoint" />
            <mxPoint x="410" y="1540" as="targetPoint" />
            <Array as="points" />
          </mxGeometry>
        </mxCell>
        <mxCell id="fXjwy3XQdKXkn7aBWRbw-40" value="Sfx salah diputar" style="ellipse;whiteSpace=wrap;html=1;" vertex="1" parent="1">
          <mxGeometry x="420" y="1310" width="120" height="80" as="geometry" />
        </mxCell>
        <mxCell id="fXjwy3XQdKXkn7aBWRbw-44" value="" style="endArrow=classic;html=1;rounded=0;exitX=0.5;exitY=1;exitDx=0;exitDy=0;entryX=0.938;entryY=0.176;entryDx=0;entryDy=0;entryPerimeter=0;" edge="1" parent="1" source="fXjwy3XQdKXkn7aBWRbw-41" target="fXjwy3XQdKXkn7aBWRbw-13">
          <mxGeometry width="50" height="50" relative="1" as="geometry">
            <mxPoint x="490" y="1400" as="sourcePoint" />
            <mxPoint x="480" y="1440" as="targetPoint" />
            <Array as="points">
              <mxPoint x="440" y="1550" />
            </Array>
          </mxGeometry>
        </mxCell>
        <mxCell id="fXjwy3XQdKXkn7aBWRbw-45" value="" style="endArrow=classic;html=1;rounded=0;exitX=0.41;exitY=1.021;exitDx=0;exitDy=0;entryX=0.5;entryY=0;entryDx=0;entryDy=0;exitPerimeter=0;" edge="1" parent="1" source="fXjwy3XQdKXkn7aBWRbw-47" target="fXjwy3XQdKXkn7aBWRbw-46">
          <mxGeometry width="50" height="50" relative="1" as="geometry">
            <mxPoint x="90" y="1140" as="sourcePoint" />
            <mxPoint x="30" y="1200" as="targetPoint" />
            <Array as="points">
              <mxPoint x="150" y="1400" />
            </Array>
          </mxGeometry>
        </mxCell>
        <mxCell id="fXjwy3XQdKXkn7aBWRbw-46" value="VFX salah ditampilkan" style="ellipse;whiteSpace=wrap;html=1;" vertex="1" parent="1">
          <mxGeometry x="100" y="1420" width="120" height="80" as="geometry" />
        </mxCell>
        <mxCell id="fXjwy3XQdKXkn7aBWRbw-47" value="Sfx salah diputar" style="ellipse;whiteSpace=wrap;html=1;" vertex="1" parent="1">
          <mxGeometry x="100" y="1290" width="120" height="80" as="geometry" />
        </mxCell>
        <mxCell id="fXjwy3XQdKXkn7aBWRbw-48" value="" style="endArrow=classic;html=1;rounded=0;exitX=0.354;exitY=1.023;exitDx=0;exitDy=0;entryX=0.039;entryY=0.324;entryDx=0;entryDy=0;entryPerimeter=0;exitPerimeter=0;" edge="1" parent="1" source="fXjwy3XQdKXkn7aBWRbw-46" target="fXjwy3XQdKXkn7aBWRbw-13">
          <mxGeometry width="50" height="50" relative="1" as="geometry">
            <mxPoint x="230" y="1370" as="sourcePoint" />
            <mxPoint x="143" y="1554" as="targetPoint" />
            <Array as="points">
              <mxPoint x="190" y="1596" />
            </Array>
          </mxGeometry>
        </mxCell>
        <mxCell id="fXjwy3XQdKXkn7aBWRbw-49" value="" style="endArrow=classic;html=1;rounded=0;exitX=0.5;exitY=1;exitDx=0;exitDy=0;entryX=0.388;entryY=-0.011;entryDx=0;entryDy=0;entryPerimeter=0;" edge="1" parent="1" source="fXjwy3XQdKXkn7aBWRbw-14" target="fXjwy3XQdKXkn7aBWRbw-47">
          <mxGeometry width="50" height="50" relative="1" as="geometry">
            <mxPoint x="219" y="1372" as="sourcePoint" />
            <mxPoint x="220" y="1410" as="targetPoint" />
            <Array as="points" />
          </mxGeometry>
        </mxCell>
        <mxCell id="fXjwy3XQdKXkn7aBWRbw-50" value="Musuh hancur&amp;nbsp; &amp;amp;&amp;amp; Benar" style="rhombus;whiteSpace=wrap;html=1;" vertex="1" parent="1">
          <mxGeometry x="280" y="1740" width="160" height="80" as="geometry" />
        </mxCell>
        <mxCell id="fXjwy3XQdKXkn7aBWRbw-51" value="Benar" style="rhombus;whiteSpace=wrap;html=1;" vertex="1" parent="1">
          <mxGeometry x="252.5" y="1200" width="115" height="50" as="geometry" />
        </mxCell>
        <mxCell id="fXjwy3XQdKXkn7aBWRbw-55" value="" style="endArrow=classic;html=1;rounded=0;exitX=1;exitY=0.5;exitDx=0;exitDy=0;entryX=-0.007;entryY=0.392;entryDx=0;entryDy=0;entryPerimeter=0;" edge="1" parent="1" source="fXjwy3XQdKXkn7aBWRbw-51" target="fXjwy3XQdKXkn7aBWRbw-37">
          <mxGeometry width="50" height="50" relative="1" as="geometry">
            <mxPoint x="320" y="1144" as="sourcePoint" />
            <mxPoint x="320" y="1210" as="targetPoint" />
            <Array as="points" />
          </mxGeometry>
        </mxCell>
        <mxCell id="fXjwy3XQdKXkn7aBWRbw-56" value="" style="endArrow=classic;html=1;rounded=0;exitX=0;exitY=0.5;exitDx=0;exitDy=0;entryX=1;entryY=0.5;entryDx=0;entryDy=0;" edge="1" parent="1" source="fXjwy3XQdKXkn7aBWRbw-51" target="fXjwy3XQdKXkn7aBWRbw-14">
          <mxGeometry width="50" height="50" relative="1" as="geometry">
            <mxPoint x="320" y="1144" as="sourcePoint" />
            <mxPoint x="320" y="1210" as="targetPoint" />
            <Array as="points" />
          </mxGeometry>
        </mxCell>
        <mxCell id="fXjwy3XQdKXkn7aBWRbw-57" value="NO" style="text;align=center;fontStyle=1;verticalAlign=middle;spacingLeft=3;spacingRight=3;strokeColor=none;rotatable=0;points=[[0,0.5],[1,0.5]];portConstraint=eastwest;html=1;" vertex="1" parent="1">
          <mxGeometry x="360" y="1200" width="80" height="26" as="geometry" />
        </mxCell>
        <mxCell id="fXjwy3XQdKXkn7aBWRbw-58" value="Yes" style="text;align=center;fontStyle=1;verticalAlign=middle;spacingLeft=3;spacingRight=3;strokeColor=none;rotatable=0;points=[[0,0.5],[1,0.5]];portConstraint=eastwest;html=1;" vertex="1" parent="1">
          <mxGeometry x="240" y="1010" width="80" height="26" as="geometry" />
        </mxCell>
        <mxCell id="fXjwy3XQdKXkn7aBWRbw-59" value="" style="endArrow=classic;html=1;rounded=0;exitX=0;exitY=0.5;exitDx=0;exitDy=0;entryX=0;entryY=1;entryDx=0;entryDy=0;" edge="1" parent="1" source="fXjwy3XQdKXkn7aBWRbw-12" target="fXjwy3XQdKXkn7aBWRbw-11">
          <mxGeometry width="50" height="50" relative="1" as="geometry">
            <mxPoint x="400" y="980" as="sourcePoint" />
            <mxPoint x="281" y="1000" as="targetPoint" />
            <Array as="points">
              <mxPoint x="168" y="1094" />
            </Array>
          </mxGeometry>
        </mxCell>
        <mxCell id="fXjwy3XQdKXkn7aBWRbw-60" value="NO" style="text;align=center;fontStyle=1;verticalAlign=middle;spacingLeft=3;spacingRight=3;strokeColor=none;rotatable=0;points=[[0,0.5],[1,0.5]];portConstraint=eastwest;html=1;" vertex="1" parent="1">
          <mxGeometry x="110" y="1054" width="80" height="26" as="geometry" />
        </mxCell>
      </root>
    </mxGraphModel>
  </diagram>
</mxfile>
